<?xml version="1.0" encoding="utf-8"?>
<!-- Generator: Adobe Illustrator 22.0.1, SVG Export Plug-In . SVG Version: 6.00 Build 0)  -->
<svg version="1.1" id="レイヤー_1" xmlns="http://www.w3.org/2000/svg" xmlns:xlink="http://www.w3.org/1999/xlink" x="0px"
	 y="0px" viewBox="0 0 80 100" style="enable-background:new 0 0 80 100;" xml:space="preserve">
<style type="text/css">
	.st0{clip-path:url(#SVGID_2_);fill:#E0F59E;}
	.st1{fill:#919191;}
	.st2{fill:#FFFFFF;}
	.st3{fill:#23BD00;}
	.st4{fill:#696969;stroke:#696969;stroke-width:2.8346;stroke-miterlimit:10;}
	.st5{fill:#696900;stroke:#696969;stroke-width:2.8346;stroke-miterlimit:10;}
	.st6{fill:#FFFFFF;stroke:#696969;stroke-width:2.8346;stroke-miterlimit:10;}
	.st7{fill:#FFFFFF;stroke:#23BD00;stroke-width:2.8346;stroke-linecap:round;stroke-linejoin:round;stroke-miterlimit:10;}
	.st8{fill:none;stroke:#FFFFFF;stroke-width:7.0866;stroke-linejoin:round;stroke-miterlimit:10;}
	.st9{fill:none;stroke:#23BD00;stroke-width:2.8346;stroke-linejoin:round;stroke-miterlimit:10;}
	.st10{fill:none;stroke:#FFFFFF;stroke-width:2.126;stroke-linecap:round;stroke-linejoin:round;stroke-miterlimit:10;}
	.st11{fill:none;stroke:#FFFFFF;stroke-width:2.8346;stroke-linecap:round;stroke-linejoin:round;stroke-miterlimit:10;}
	.st12{fill:#64DC00;}
	.st13{fill:none;stroke:#FFFFFF;stroke-width:4.252;stroke-linecap:round;stroke-linejoin:round;stroke-miterlimit:10;}
	.st14{fill:#00B4FF;}
	.st15{fill:#FFFFFF;stroke:#00B4FF;stroke-width:2.8346;stroke-linecap:round;stroke-linejoin:round;stroke-miterlimit:10;}
	.st16{fill:#00B4FF;stroke:#00B4FF;stroke-width:4.252;}
	.st17{fill:#FFFFFF;stroke:#FFFFFF;stroke-width:2.8346;stroke-linecap:round;stroke-linejoin:round;stroke-miterlimit:10;}
	.st18{fill:#FFFFFF;stroke:#FFFFFF;stroke-width:5.6693;stroke-linecap:round;stroke-linejoin:round;stroke-miterlimit:10;}
	.st19{fill:#00B4FF;stroke:#FFFFFF;stroke-width:2.8346;stroke-linejoin:round;stroke-miterlimit:10;}
	.st20{fill:none;stroke:#23BD00;stroke-width:2.126;stroke-linecap:round;stroke-miterlimit:10;}
	.st21{fill:#FFFFFF;stroke:#23BD00;stroke-width:1.4995;stroke-linecap:round;stroke-linejoin:round;stroke-miterlimit:10;}
	.st22{fill:none;stroke:#23BD00;stroke-width:2.126;stroke-linecap:round;stroke-linejoin:round;stroke-miterlimit:10;}
	.st23{fill:#919191;stroke:#919191;stroke-width:1.4995;stroke-linejoin:round;stroke-miterlimit:8;}
	.st24{fill:#666666;}
	.st25{fill:none;stroke:#FFFFFF;stroke-width:2.126;stroke-linecap:round;stroke-miterlimit:10;}
	.st26{fill:#A4EEB0;stroke:#FFFFFF;stroke-width:5.6693;stroke-linejoin:round;stroke-miterlimit:10;}
	.st27{fill:none;stroke:#FFFFFF;stroke-width:5.6693;stroke-linecap:round;stroke-linejoin:bevel;stroke-miterlimit:10;}
	.st28{fill:none;stroke:#FFFFFF;stroke-width:5.6693;stroke-linecap:round;stroke-linejoin:round;stroke-miterlimit:10;}
	.st29{fill:#FFFFFF;stroke:#FFFFFF;stroke-width:5.6693;stroke-linejoin:round;stroke-miterlimit:10;}
	.st30{fill:#C3C3C3;}
	.st31{fill:#C3C3C3;stroke:#C3C3C3;stroke-width:1.4173;stroke-linecap:round;stroke-linejoin:round;stroke-miterlimit:10;}
	.st32{fill:#23BD00;stroke:#23BD00;stroke-width:1.4173;stroke-linejoin:round;stroke-miterlimit:10;}
	.st33{fill:none;stroke:#FFFFFF;stroke-width:4.252;stroke-linejoin:round;}
	.st34{fill:#A4EEB0;stroke:#A4EEB0;stroke-width:1.4173;stroke-linejoin:round;stroke-miterlimit:10;}
	.st35{fill:none;stroke:#C3C3C3;stroke-width:0.9921;stroke-linecap:round;stroke-linejoin:bevel;stroke-miterlimit:10;}
	.st36{fill:none;stroke:#C3C3C3;stroke-width:0.9921;stroke-linecap:round;stroke-linejoin:round;stroke-miterlimit:10;}
	.st37{fill:#C3C3C3;stroke:#C3C3C3;stroke-width:0.2835;stroke-linejoin:round;stroke-miterlimit:8;}
	.st38{fill:#23BD00;stroke:#23BD00;stroke-width:0.4252;stroke-miterlimit:8;}
	.st39{fill:#919191;stroke:#919191;stroke-width:0.4252;stroke-miterlimit:8;}
	.st40{fill:none;stroke:#919191;stroke-width:2.126;stroke-linecap:round;stroke-linejoin:round;stroke-miterlimit:10;}
	.st41{fill:#A9D18E;stroke:#FFFFFF;stroke-width:1.4173;stroke-miterlimit:10;}
	.st42{fill:#F4B183;stroke:#FFFFFF;stroke-width:1.4173;stroke-miterlimit:10;}
	.st43{fill:#FFD966;stroke:#FFFFFF;stroke-width:1.4173;stroke-miterlimit:10;}
	.st44{fill:#5B9BD5;stroke:#FFFFFF;stroke-width:1.4173;stroke-miterlimit:10;}
	.st45{fill:none;stroke:#919191;stroke-width:1.4995;stroke-linecap:round;stroke-miterlimit:10;}
	.st46{fill:#F2F2F2;stroke:#F2F2F2;stroke-width:2.126;stroke-linejoin:round;stroke-miterlimit:10;}
	.st47{fill:#FFFFFF;stroke:#919191;stroke-width:1.4995;stroke-linecap:round;stroke-linejoin:round;stroke-miterlimit:10;}
	.st48{fill:#E0E0E0;stroke:#E0E0E0;stroke-width:2.126;stroke-linejoin:round;stroke-miterlimit:10;}
	.st49{fill:none;stroke:#AAAAAA;stroke-width:1.4995;stroke-linecap:round;stroke-miterlimit:10;}
	.st50{fill:none;}
	.st51{fill:none;stroke:#FFFFFF;stroke-width:3.685;stroke-linecap:round;stroke-linejoin:round;stroke-miterlimit:10;}
	.st52{fill:none;stroke:#23BD00;stroke-width:1.4995;stroke-linecap:round;stroke-linejoin:round;stroke-miterlimit:10;}
	.st53{opacity:0;clip-path:url(#SVGID_4_);fill-rule:evenodd;clip-rule:evenodd;fill:#FFFFFF;}
	.st54{fill:#C3C3C3;stroke:#C3C3C3;stroke-width:2.126;stroke-linejoin:round;stroke-miterlimit:10;}
	.st55{fill:#FFFFFF;stroke:#919191;stroke-width:1.4995;stroke-linejoin:round;stroke-miterlimit:10;}
</style>
<rect x="2.235" y="2.311" class="st46" width="75.549" height="95.512"/>
<g>
	<path class="st30" d="M11.745,90.118c0,0.498-0.358,0.822-0.785,0.822c-0.485,0-0.798-0.349-0.798-0.797v-7.67
		c0-0.847,0.474-1.433,1.26-1.433c0.462,0,0.9,0.162,1.374,1.146l2.876,6.051v-6.4c0-0.522,0.394-0.797,0.786-0.797
		c0.485,0,0.797,0.374,0.797,0.822v7.309c0,1.258-0.393,1.769-1.201,1.769c-0.728,0-1.028-0.337-1.479-1.308l-2.83-6.026V90.118z"/>
	<path class="st30" d="M18.669,85.984c0-2.415,1.329-5.055,4.136-5.055c2.795,0,4.124,2.64,4.124,5.055
		c0,2.366-1.282,5.068-4.124,5.068S18.669,88.363,18.669,85.984z M25.243,85.984c0-1.581-0.774-3.337-2.438-3.337
		c-1.652,0-2.449,1.706-2.449,3.337c0,1.619,0.786,3.35,2.449,3.35C24.434,89.334,25.243,87.641,25.243,85.984z"/>
	<path class="st30" d="M32.323,90.118c0,0.485-0.358,0.822-0.797,0.822c-0.485,0-0.809-0.337-0.809-0.797v-8.218
		c0-0.486,0.358-0.885,0.797-0.885c0.497,0,0.809,0.449,0.809,0.885V90.118z"/>
	<path class="st30" d="M40.607,89.247c-0.23,0.734-0.542,1.07-1.224,1.07c-0.728,0-1.017-0.336-1.248-1.07l-1.859-5.84v6.711
		c0,0.498-0.358,0.822-0.797,0.822c-0.462,0-0.786-0.349-0.786-0.797v-7.446c0-0.896,0.312-1.656,1.398-1.656
		c0.831,0,1.132,0.274,1.49,1.346l1.79,5.54l1.802-5.54c0.323-1.021,0.636-1.346,1.421-1.346c0.924,0,1.455,0.461,1.455,1.656v7.446
		c0,0.511-0.381,0.797-0.785,0.797c-0.508,0-0.797-0.398-0.797-0.822v-6.711L40.607,89.247z"/>
	<path class="st30" d="M48.121,82.05c0.139-0.411,0.462-1.009,1.098-1.009c0.67,0,0.993,0.673,1.108,1.009l2.749,7.646
		c0.035,0.087,0.069,0.236,0.069,0.41c0,0.398-0.266,0.835-0.843,0.835c-0.428,0-0.636-0.162-0.878-0.896L50.916,88.5h-3.372
		l-0.509,1.544c-0.254,0.747-0.474,0.896-0.878,0.896c-0.543,0-0.854-0.374-0.854-0.872c0-0.162,0.046-0.311,0.069-0.373
		L48.121,82.05z M48.087,86.856h2.287l-1.144-3.462L48.087,86.856z"/>
	<path class="st30" d="M60.891,85.125c0.508,0,1.259,0.324,1.259,1.42v1.245c0,2.652-2.299,3.263-3.662,3.263
		c-3.118,0-4.262-2.889-4.262-4.969c0-2.627,1.675-5.154,4.216-5.154c1.756,0,3.385,1.232,3.385,2.216
		c0,0.386-0.255,0.859-0.739,0.859c-0.174,0-0.358,0-0.844-0.522c-0.646-0.71-1.098-0.872-1.768-0.872
		c-1.513,0-2.587,1.557-2.587,3.474c0,2.267,1.467,3.237,2.703,3.237c1.479,0,1.964-1.083,1.964-1.544v-0.672
		c0-0.199-0.116-0.324-0.301-0.324H58.28c-0.312,0-0.739-0.286-0.739-0.834c0-0.386,0.208-0.822,0.682-0.822H60.891z"/>
	<path class="st30" d="M65.032,90.828c-0.89,0-1.236-0.535-1.236-1.544v-6.698c0-0.822,0.404-1.433,1.213-1.433h3.904
		c0.416,0,0.866,0.212,0.866,0.847c0,0.548-0.312,0.872-0.819,0.872h-3.292c-0.208,0-0.266,0.174-0.266,0.36v1.781h3.223
		c0.381,0,0.762,0.286,0.762,0.821c0,0.312-0.115,0.822-0.704,0.822h-3.28v2.116c0,0.188,0.127,0.336,0.335,0.336h3.188
		c0.393,0,0.854,0.188,0.854,0.848c0,0.46-0.23,0.871-0.819,0.871H65.032z"/>
</g>
<path class="st54" d="M40.427,53.895c-0.023-0.001-0.044-0.007-0.067-0.007c-0.064,0-0.125,0.003-0.189,0.003
	c-0.046,0-0.091-0.001-0.136-0.002c-0.003,0-0.005-0.001-0.008-0.001c-0.008,0-0.015,0-0.022,0c-0.008,0-0.015,0-0.022,0
	c-0.003,0-0.005,0.001-0.008,0.001c-0.045,0.001-0.09,0.002-0.136,0.002c-0.064,0-0.125-0.003-0.188-0.003
	c-0.023,0-0.044,0.006-0.067,0.007c-11.78,0.15-18.465,5.919-19.722,14.013h4.051h9.979h0.333h11.562h0.333h9.979h4.051
	C58.892,59.815,52.207,54.046,40.427,53.895z"/>
<circle class="st54" cx="39.812" cy="33.86" r="14.666"/>
</svg>
